{"glyphs":{":":{"x_min":0,"x_max":254,"ha":254,"o":"m 75 151 b 30 151 7 42 49 42 b 114 42 157 151 75 151 z m 139 355 b 92 355 67 258 116 258 b 174 258 207 355 139 355 z"},"$":{"x_min":0,"x_max":319,"ha":319,"o":"m 67 322 b 67 329 94 354 131 381 b 124 358 117 334 110 309 b 85 314 67 318 67 322 z m 266 192 b 266 158 198 112 118 85 b 129 138 143 191 159 244 b 210 237 266 227 266 201 z m 290 514 b 278 514 267 513 256 511 b 257 515 259 518 259 520 b 268 538 232 574 211 574 b 205 574 200 572 198 566 b 195 561 182 529 164 481 b 87 442 26 378 26 344 b 26 292 43 260 96 252 b 80 190 68 126 60 69 b 39 65 19 63 0 63 b -115 63 -99 115 -99 115 b -99 127 -103 132 -108 132 b -119 132 -138 107 -138 90 b -138 65 -119 -27 -11 -27 b 10 -27 30 -25 50 -21 b 47 -54 47 -80 50 -96 b 51 -107 74 -124 86 -124 b 91 -124 94 -121 93 -114 b 90 -98 93 -59 101 -8 b 221 35 294 135 294 182 b 294 246 233 277 174 295 b 191 349 210 399 225 439 b 254 453 281 462 302 462 b 317 462 309 514 290 514 z"},"?":{"x_min":0,"x_max":359,"ha":359,"o":"m 42 327 b 67 380 182 521 247 521 b 262 521 292 504 292 471 b 292 437 59 194 59 110 b 59 89 75 70 85 70 b 90 70 94 74 94 84 b 94 145 351 373 351 439 b 351 481 321 502 299 524 b 277 546 272 586 222 586 b 124 586 20 406 20 331 b 20 319 23 314 28 314 b 32 314 38 319 42 327 z m 35 6 b 23 6 27 -2 27 -10 b 27 -26 20 -79 20 -92 b 20 -107 38 -119 46 -119 b 49 -119 51 -118 51 -115 b 51 -102 98 -55 98 -41 b 98 -15 56 6 35 6 z"},"<":{"x_min":0,"x_max":297,"ha":297,"o":"m 248 439 b 222 439 -5 181 -5 165 b -5 163 -4 162 -2 161 b -1 159 -1 157 0 156 b 35 90 176 -57 198 -51 b 218 -45 80 143 57 190 b 138 249 268 376 283 396 b 296 415 276 439 248 439 z"},"'":{"x_min":0,"x_max":163,"ha":163,"o":"m 88 621 b 68 621 69 612 66 606 b 56 573 26 500 26 468 b 26 454 39 443 50 443 b 55 443 60 445 63 451 b 75 472 139 554 139 588 b 139 610 108 621 88 621 z"},"=":{"x_min":0,"x_max":379,"ha":379,"o":"m 311 147 b 293 147 22 142 22 124 b 22 95 27 69 44 69 b 61 69 191 94 317 94 b 331 94 330 147 311 147 z m 332 271 b 316 271 169 251 104 251 b 64 251 66 263 52 263 b 38 263 35 197 104 197 b 173 197 331 229 341 229 b 352 229 341 271 332 271 z"},"a":{"x_min":0,"x_max":369,"ha":369,"o":"m 246 25 b 246 120 330 200 330 224 b 330 249 295 267 281 267 b 237 267 62 29 48 29 b 44 29 43 33 43 36 b 43 104 186 318 225 318 b 244 318 255 305 270 288 b 278 279 287 291 282 298 b 265 327 232 373 180 373 b 107 373 -36 137 -36 63 b -36 21 3 -24 32 -24 b 60 -24 137 109 229 190 b 217 161 196 102 196 54 b 196 -6 267 -37 267 -12 b 267 -7 246 -9 246 25 z"},"L":{"x_min":0,"x_max":208,"ha":208,"o":"m 322 -55 b 214 -55 113 -76 34 -104 b 34 -101 34 -98 34 -94 b 34 187 252 506 252 519 b 252 532 230 580 192 580 b 164 580 -14 263 -14 23 b -14 -41 -5 -86 7 -113 b -80 -147 -135 -186 -135 -205 b -135 -234 -110 -250 -89 -250 b -68 -250 141 -106 364 -106 b 545 -106 558 -174 558 -205 b 558 -223 583 -218 583 -205 b 583 -156 571 -55 322 -55 z"},"3":{"x_min":0,"x_max":417,"ha":417,"o":"m 307 400 b 337 433 366 470 366 488 b 366 523 324 568 295 568 b 192 568 66 515 66 493 b 66 482 72 478 80 478 b 86 478 92 481 97 484 b 134 507 261 522 305 522 b 309 522 315 521 315 513 b 315 502 231 418 186 379 b 144 359 111 335 111 328 b 111 284 152 262 159 262 b 166 262 231 337 321 337 b 336 337 346 331 346 312 b 346 254 157 23 18 23 b -24 23 -34 46 -34 64 b -34 75 -42 82 -49 82 b -54 82 -58 78 -58 69 b -58 -1 12 -58 57 -58 b 222 -58 401 197 401 283 b 401 317 369 386 307 400 z"},";":{"x_min":0,"x_max":254,"ha":254,"o":"m 66 75 b 53 75 47 64 47 56 b 47 31 -2 -42 -2 -51 b -2 -59 4 -62 12 -62 b 41 -62 99 20 105 26 b 111 32 117 35 117 43 b 117 52 105 75 66 75 z m 107 306 b 60 306 35 210 84 210 b 143 210 175 306 107 306 z"},"J":{"x_min":0,"x_max":330,"ha":330,"o":"m 298 596 b 202 596 -8 574 -8 471 b -8 410 36 387 36 405 b 36 423 10 424 10 460 b 10 491 125 518 223 524 b 216 443 192 292 144 159 b 86 140 -7 90 -78 18 b -90 6 -104 -11 -111 -23 b -116 -32 -109 -44 -96 -31 b -60 5 24 81 129 122 b 81 4 12 -90 -82 -90 b -117 -90 -101 -55 -116 -55 b -154 -55 -126 -136 -30 -136 b 228 -136 303 409 312 524 b 400 520 481 506 489 506 b 516 506 532 557 532 567 b 532 576 452 596 298 596 z"},"V":{"x_min":0,"x_max":311,"ha":311,"o":"m 693 695 b 449 695 197 335 87 96 b 105 218 126 353 126 392 b 126 463 -3 503 -3 472 b -3 450 22 463 22 419 b 22 310 -50 -9 -50 -46 b -50 -73 9 -122 40 -127 b 55 -150 79 -153 79 -141 b 79 -46 448 669 709 669 b 773 669 801 619 801 603 b 801 588 826 579 826 608 b 826 637 786 695 693 695 z"},"\"":{"x_min":0,"x_max":297,"ha":297,"o":"m 100 621 b 80 621 80 612 78 606 b 67 573 37 500 37 468 b 37 454 50 443 62 443 b 67 443 72 445 75 451 b 86 472 151 554 151 588 b 151 610 120 621 100 621 z m 204 612 b 184 612 182 597 181 597 b 172 558 151 500 151 468 b 151 454 163 441 174 441 b 179 441 184 444 188 451 b 199 469 254 545 254 579 b 254 601 224 612 204 612 z"},"7":{"x_min":0,"x_max":387,"ha":387,"o":"m 343 588 b 342 588 338 585 333 579 b 312 574 184 533 90 533 b 57 533 60 546 49 546 b 38 546 6 471 126 471 b 192 471 227 492 280 516 b 193 403 44 181 44 43 b 44 -20 89 -37 103 -37 b 118 -37 117 -22 107 -22 b 96 -22 84 -14 84 2 b 84 103 246 372 398 511 b 427 537 381 588 343 588 z"},"S":{"x_min":0,"x_max":383,"ha":383,"o":"m -17 333 b -17 214 278 145 278 84 b 278 32 131 -61 6 -61 b -119 -61 -148 -13 -148 29 b -148 72 -174 66 -174 43 b -174 -22 -151 -150 -2 -150 b 147 -150 336 -27 336 77 b 336 187 69 223 69 314 b 69 378 252 525 252 513 b 252 501 208 433 208 341 b 208 302 262 262 288 262 b 314 262 307 291 299 291 b 291 291 275 289 275 323 b 275 398 360 530 360 543 b 360 555 308 629 265 629 b 237 629 -17 453 -17 333 z"},"}":{"x_min":0,"x_max":271,"ha":271,"o":"m 243 694 b 224 694 250 661 250 640 b 250 571 158 447 158 371 b 158 296 203 261 203 261 b 77 261 34 -123 -90 -123 b -107 -123 -89 -160 -60 -160 b 60 -160 99 104 202 208 b 228 234 256 239 256 252 b 256 264 223 291 223 351 b 223 465 315 548 315 619 b 315 668 265 694 243 694 z"},"Z":{"x_min":0,"x_max":363,"ha":363,"o":"m 435 510 b 353 518 28 492 24 459 b 22 439 15 379 43 377 b 57 375 246 435 372 450 b 287 361 -90 -91 -146 -146 b -147 -147 -148 -149 -148 -150 b -148 -150 -148 -150 -148 -150 b -148 -184 -94 -203 -81 -203 b -68 -203 118 -103 300 -103 b 342 -103 411 -106 411 -138 b 411 -169 398 -172 398 -187 b 398 -201 432 -182 432 -144 b 432 -107 416 -33 276 -33 b 175 -33 59 -61 -26 -90 b 85 28 427 434 447 454 b 447 455 447 455 448 455 b 450 458 451 460 451 462 b 454 478 447 509 435 510 z"},"x":{"x_min":0,"x_max":374,"ha":374,"o":"m 346 388 b 321 388 249 328 175 252 b 170 280 167 306 167 328 b 167 363 75 381 75 339 b 75 335 77 326 79 313 b 68 269 30 217 23 206 b 14 193 28 180 39 184 b 58 209 78 238 92 260 b 98 238 106 213 115 186 b 42 102 -20 12 -20 -37 b -20 -56 13 -80 13 -51 b 13 -21 71 45 144 113 b 183 25 238 -55 305 -55 b 327 -55 336 -36 322 -36 b 280 -36 229 60 198 161 b 279 232 364 296 405 317 b 432 331 362 388 346 388 z"},")":{"x_min":0,"x_max":273,"ha":273,"o":"m 112 629 b 112 605 142 609 142 495 b 142 382 110 164 -9 -87 b -15 -99 -11 -104 -5 -104 b 0 -104 7 -101 12 -95 b 106 30 228 304 228 490 b 228 614 176 647 142 647 b 125 647 112 638 112 629 z"},"&":{"x_min":0,"x_max":438,"ha":438,"o":"m 103 39 b 103 39 116 53 137 76 b 141 68 145 60 150 52 b 135 47 119 43 103 39 z m 347 538 b 361 538 364 527 362 510 b 354 430 262 315 166 216 b 157 253 152 290 152 324 b 152 434 292 538 347 538 z m 415 244 b 417 267 411 280 407 280 b 404 280 403 277 402 272 b 397 230 331 137 215 79 b 206 98 198 117 191 137 b 276 238 393 393 393 490 b 393 533 364 584 328 584 b 242 584 68 473 68 309 b 68 265 81 209 102 152 b 27 80 -40 25 -56 15 b -72 5 -45 -54 -26 -54 b 51 -54 122 -33 184 -2 b 231 -69 286 -118 336 -118 b 357 -118 378 -104 379 -93 b 380 -89 379 -88 378 -88 b 375 -88 369 -93 361 -93 b 328 -93 281 -42 240 31 b 344 100 410 195 415 244 z"},"_":{"x_min":0,"x_max":508,"ha":508,"o":"m -64 -51 b -78 -66 -81 -97 -73 -97 b -65 -97 -41 -93 41 -93 b 124 -93 287 -113 420 -113 b 552 -113 420 -113 456 -113 b 492 -113 493 -51 482 -51 b 471 -51 439 -58 372 -58 b 288 -58 100 -45 1 -45 b -35 -45 -60 -47 -64 -51 z"},"v":{"x_min":0,"x_max":321,"ha":321,"o":"m 403 443 b 329 443 58 10 31 4 b 55 77 147 279 147 305 b 147 335 67 402 67 367 b 67 325 -54 46 -54 10 b -54 -28 -1 -54 19 -54 b 21 -54 22 -54 23 -53 b 79 -33 272 323 414 420 b 433 430 419 443 403 443 z"},"O":{"x_min":0,"x_max":446,"ha":446,"o":"m 294 522 b 338 522 358 493 363 447 b 363 189 150 -49 86 -49 b 59 -49 44 -29 44 -1 b 44 161 185 321 201 321 b 208 321 206 319 212 319 b 231 319 184 399 140 399 b 99 399 -18 200 -18 46 b -18 -2 46 -90 134 -90 b 297 -90 436 241 436 373 b 436 481 334 575 267 575 b 72 575 -58 355 -58 318 b -58 247 -4 240 -4 252 b -4 263 -16 259 -16 272 b -16 305 112 522 294 522 z"},"(":{"x_min":0,"x_max":268,"ha":268,"o":"m 250 644 b 212 644 0 308 0 79 b 0 -32 61 -97 110 -97 b 127 -97 123 -72 110 -72 b 97 -72 56 -48 56 19 b 56 274 318 586 318 596 b 318 606 297 644 250 644 z"},"C":{"x_min":0,"x_max":367,"ha":367,"o":"m 255 90 b 204 17 125 -83 16 -83 b 6 -83 -1 -76 -1 -65 b -1 130 221 392 309 455 b 307 434 304 409 300 378 b 296 356 286 349 286 343 b 286 338 288 332 298 332 b 337 332 377 468 383 506 b 387 534 322 581 318 555 b 317 549 316 542 316 534 b 306 544 294 552 285 552 b 243 552 -70 245 -70 32 b -70 -73 -1 -125 49 -125 b 135 -125 229 -1 278 80 b 292 103 274 117 255 90 z"},"W":{"x_min":0,"x_max":547,"ha":547,"o":"m 974 722 b 614 722 316 51 316 51 b 316 113 401 352 401 373 b 401 394 349 431 304 431 b 303 431 301 429 298 424 b 294 423 291 422 288 420 b 229 368 106 159 39 34 b 44 86 153 373 153 416 b 153 459 49 504 49 483 b 49 474 50 472 50 455 b 50 403 -30 85 -30 50 b -30 11 15 -20 37 -19 b 41 -20 45 -18 47 -15 b 127 132 213 252 270 325 b 245 220 217 67 217 -2 b 217 -50 348 -126 348 -85 b 348 34 688 683 997 683 b 1056 683 1038 614 1061 614 b 1083 614 1088 722 974 722 z"},"A":{"x_min":0,"x_max":371,"ha":371,"o":"m 267 166 b 339 346 420 457 420 468 b 420 507 350 551 321 548 l 321 548 b 247 548 89 316 -17 131 b -73 115 -107 97 -107 86 b -107 78 -91 86 -38 95 b -80 21 -107 -34 -107 -40 b -107 -62 -68 -97 -68 -76 b -68 -63 -30 12 22 104 b 56 108 98 111 150 113 b 126 36 110 -36 110 -90 b 110 -205 195 -247 195 -214 b 195 -201 189 -204 189 -173 b 189 -80 214 20 248 114 b 281 113 276 106 285 106 b 297 106 304 119 304 139 b 304 155 288 163 267 166 z m 46 146 b 139 306 246 459 290 482 b 260 406 212 300 166 163 b 123 159 82 153 46 146 z"},"f":{"x_min":0,"x_max":283,"ha":283,"o":"m 219 158 b 208 161 191 164 179 165 b 147 166 116 166 86 165 b 168 354 279 488 279 499 b 279 515 245 560 207 560 b 193 560 72 361 -7 154 b -39 148 -59 139 -60 131 b -60 131 -58 113 -33 120 b -28 121 -23 123 -18 124 b -51 31 -74 -61 -74 -136 b -74 -177 -27 -250 13 -250 b 64 -250 93 -133 93 -58 b 93 5 93 58 72 130 b 73 134 75 138 76 142 b 136 149 188 150 218 150 b 232 150 227 156 219 158 z m 5 -225 b 2 -225 0 -220 0 -213 b 0 -119 18 -27 45 57 b 51 34 55 4 55 -37 b 55 -178 15 -225 5 -225 z"},"Q":{"x_min":0,"x_max":475,"ha":475,"o":"m 192 -40 b 347 3 473 328 473 455 b 473 568 367 666 297 666 b 95 666 -40 437 -40 399 b -40 325 16 317 16 330 b 16 342 4 337 4 351 b 4 385 136 611 325 611 b 371 611 392 581 397 533 b 397 264 176 -2 109 -2 b 81 -2 66 18 66 48 b 66 216 212 382 229 382 b 236 382 234 381 240 381 b 260 381 211 463 166 463 b 123 463 1 257 1 97 b 1 56 47 -14 113 -37 b 3 -35 -56 -48 -56 -56 b -56 -66 -44 -118 -16 -119 b -6 -120 106 -106 210 -112 b 313 -118 462 -155 460 -191 b 458 -226 431 -226 430 -244 b 429 -262 475 -242 478 -181 b 484 -82 293 -47 192 -40 z"},"w":{"x_min":0,"x_max":481,"ha":481,"o":"m 392 338 b 392 323 408 340 408 299 b 408 205 279 7 237 7 b 211 7 307 214 307 238 b 307 262 280 317 242 317 b 240 317 237 312 233 305 b 206 269 125 162 33 37 b 33 37 102 177 102 254 b 102 300 47 353 16 353 b -8 353 9 340 9 340 b 25 324 24 308 24 281 b 24 162 -48 48 -48 36 b -48 24 -5 -38 12 -38 b 27 -37 110 68 199 207 b 183 148 168 84 168 58 b 168 23 203 -25 240 -25 b 289 -25 459 169 459 261 b 459 354 392 352 392 338 z"},"-":{"x_min":0,"x_max":293,"ha":293,"o":"m 86 206 b 80 206 77 164 93 164 b 153 164 246 184 246 195 b 246 205 199 207 155 207 b 124 207 96 206 86 206 z"},"E":{"x_min":0,"x_max":383,"ha":383,"o":"m 404 569 b 306 586 182 543 127 518 b 114 512 116 494 125 476 b 97 429 69 368 36 277 b 4 269 -16 259 -16 252 b -16 237 -30 186 -4 186 b -2 186 2 186 6 187 b -15 116 -29 48 -25 1 b -25 -2 -24 -6 -24 -9 b -59 -22 -82 -32 -84 -34 b -89 -39 -92 -55 -92 -67 b -92 -125 -54 -113 -27 -97 b -13 -90 -2 -83 12 -76 b 25 -91 38 -97 36 -84 b 36 -77 32 -77 29 -67 b 137 -15 271 24 393 53 b 405 56 392 83 333 79 b 233 73 114 39 29 9 b 37 69 63 139 93 208 b 175 231 282 263 282 274 b 282 286 228 295 189 295 b 170 295 151 294 131 293 b 183 399 222 462 222 467 b 222 468 222 469 221 470 b 249 481 283 494 321 501 b 395 519 477 515 483 523 b 487 529 474 560 404 569 z"},"s":{"x_min":0,"x_max":279,"ha":279,"o":"m 48 148 b 48 186 167 289 167 289 b 167 289 125 212 125 172 b 125 133 152 105 152 133 b 152 149 247 320 247 346 b 247 372 202 402 174 402 b 146 402 -6 239 -6 185 b -6 125 128 35 128 35 b 128 35 99 8 11 8 b -32 8 -26 35 -40 35 b -52 35 -46 -40 73 -40 b 192 -40 222 -14 222 -5 b 222 21 48 110 48 148 z"},">":{"x_min":0,"x_max":604,"ha":604,"o":"m 233 452 b 255 457 280 460 306 460 b 344 460 357 444 357 435 b 357 427 367 429 367 435 b 367 440 365 487 278 487 b 180 487 53 422 53 413 b 53 400 68 388 77 388 b 78 388 80 389 83 391 b 119 407 155 362 146 332 b 131 284 119 231 119 186 b 119 156 136 151 136 162 l 136 172 b 136 258 236 437 236 444 b 236 446 235 449 233 452 z m 158 367 b 148 392 120 405 105 403 l 105 403 b 124 413 152 428 187 439 b 179 422 168 396 158 367 z m 370 190 b 344 188 318 185 295 181 b 294 181 293 183 293 185 b 293 257 367 339 367 343 b 367 346 355 368 344 368 b 343 368 343 368 342 367 b 339 366 288 347 222 227 b 222 281 316 413 316 418 b 316 422 306 438 287 438 b 274 438 196 295 196 240 b 196 226 211 207 223 205 b 228 204 265 285 318 334 b 297 299 273 244 273 211 b 273 195 278 185 283 178 b 211 165 160 143 161 133 b 161 125 198 151 360 161 b 388 163 384 158 390 159 b 397 159 401 166 400 177 b 400 187 386 191 370 190 z m 389 251 b 423 251 471 301 471 331 b 471 361 454 372 439 372 b 421 372 347 298 347 252 b 347 228 365 205 387 205 b 401 205 418 219 418 219 b 425 223 425 231 414 225 b 405 220 396 217 390 217 b 379 217 376 225 376 235 b 376 240 377 245 380 252 b 383 251 386 251 389 251 z m 452 342 b 454 342 455 341 455 337 b 455 309 412 261 390 261 b 388 261 386 261 385 261 b 404 296 445 342 452 342 z"},"l":{"x_min":0,"x_max":186,"ha":186,"o":"m 210 554 b 184 554 -24 265 -24 60 b -24 -70 30 -107 30 -78 b 30 -70 22 -69 22 -40 b 22 200 269 492 269 503 b 269 514 248 554 210 554 z"},"8":{"x_min":0,"x_max":391,"ha":391,"o":"m 156 76 b 156 29 46 -12 39 -12 b 32 -12 31 -9 31 -2 b 31 5 78 50 139 113 b 149 99 156 86 156 76 z m 400 511 b 400 587 330 649 258 649 b 185 649 140 608 140 599 b 140 589 142 589 148 589 b 155 589 206 607 281 607 b 356 607 355 557 355 526 b 355 434 231 291 121 176 b 95 203 74 226 74 248 b 74 301 202 449 202 470 b 202 491 192 526 161 526 b 144 526 22 374 22 294 b 22 248 66 199 103 156 b 24 74 -43 9 -43 -9 b -43 -53 8 -80 45 -80 b 127 -80 206 -9 206 35 b 206 72 185 105 160 135 b 266 247 400 405 400 511 z"},"\\":{"x_min":0,"x_max":211,"ha":211,"o":"m 39 604 b 36 611 30 614 23 614 b 2 614 -29 591 -29 580 b -29 567 102 28 102 -120 b 102 -126 107 -129 115 -129 b 133 -129 165 -111 165 -87 b 165 -11 47 581 39 604 z"},"e":{"x_min":0,"x_max":313,"ha":313,"o":"m 332 202 b 317 182 172 17 83 17 b 44 17 51 72 59 88 b 65 86 73 84 81 84 b 166 84 284 210 284 285 b 284 360 243 389 205 389 b 161 389 -23 202 -23 87 b -23 27 21 -30 76 -30 b 196 -30 347 180 352 191 b 367 210 351 228 332 202 z m 238 314 b 242 314 244 309 244 301 b 244 229 139 110 82 110 b 78 110 74 111 70 111 b 117 197 220 314 238 314 z"},"b":{"x_min":0,"x_max":430,"ha":430,"o":"m 340 329 b 198 329 55 92 55 92 b 55 215 229 466 258 495 b 269 506 229 551 192 551 b 181 551 -4 281 -4 145 b -4 88 59 38 77 56 b 95 74 244 296 330 296 b 335 296 337 294 337 291 b 337 222 208 36 81 36 b 42 36 29 47 29 63 b 29 73 12 69 12 63 b 12 27 48 -43 123 -43 b 260 -43 411 158 411 233 b 411 262 375 329 340 329 z"},"%":{"x_min":0,"x_max":368,"ha":368,"o":"m 244 50 b 224 50 269 136 290 136 b 313 136 282 50 244 50 z m 93 479 b 116 479 68 401 48 401 b 28 401 80 479 93 479 z m 272 600 b 264 577 -23 -15 -23 -90 b -23 -115 9 -133 28 -133 b 36 -133 41 -130 41 -123 b 41 24 340 563 340 576 b 340 587 308 610 288 610 b 280 610 274 607 272 600 z m 259 177 b 234 177 195 125 195 88 b 195 70 215 54 219 40 b 226 18 255 8 273 8 b 308 8 344 101 344 123 b 344 135 285 177 259 177 z m 73 356 b 108 356 144 449 144 471 b 144 483 125 510 105 510 b 86 510 90 535 65 535 b 40 535 -5 473 -5 436 b -5 419 18 413 18 392 b 18 370 55 356 73 356 z"},"m":{"x_min":0,"x_max":507,"ha":507,"o":"m 477 261 b 477 287 447 313 430 318 l 430 319 b 429 319 429 319 429 319 b 427 319 426 319 424 319 b 423 319 421 317 417 313 b 334 267 254 150 211 78 b 261 205 373 379 373 390 b 373 412 342 443 317 443 b 317 443 316 442 316 442 l 316 443 b 316 443 158 290 35 70 b 35 70 105 210 105 287 b 105 333 49 386 18 386 b -5 386 12 373 12 373 b 28 357 27 341 27 314 b 27 195 -45 81 -45 69 b -45 57 -2 -5 15 -5 b 29 -5 127 189 243 329 b 192 239 133 117 133 56 b 133 22 188 -37 188 -14 b 245 94 320 195 380 251 b 344 184 302 86 302 30 b 302 -34 371 -54 371 -42 b 371 -29 362 -37 362 -13 b 362 80 477 253 477 261 z"},"#":{"x_min":0,"x_max":455,"ha":455,"o":"m 198 195 b 174 192 150 188 127 185 b 135 206 142 227 149 247 b 172 252 196 257 221 261 b 213 239 206 217 198 195 z m 433 346 b 405 346 371 344 335 340 b 382 448 388 460 388 465 b 388 495 346 526 322 526 b 314 526 309 523 307 517 b 303 507 293 465 245 330 b 222 327 198 324 176 320 b 192 365 203 396 203 400 b 203 412 171 434 151 434 b 143 434 137 431 135 424 b 132 415 115 368 95 306 b 44 296 8 288 4 283 b -16 263 -3 213 11 213 b 15 213 37 219 70 228 b 65 210 60 192 55 174 b -16 162 -68 152 -73 146 b -93 126 -80 76 -66 76 b -61 76 -22 86 35 98 b 25 56 18 18 18 -7 b 18 -30 35 -44 46 -44 b 52 -44 56 -40 56 -33 b 56 -21 76 40 101 112 b 125 117 149 121 175 126 b 134 1 127 -19 127 -61 b 127 -86 151 -105 165 -105 b 170 -105 174 -102 174 -96 b 174 -35 194 3 248 137 b 305 145 362 150 414 150 b 439 150 432 213 414 213 b 379 213 329 209 276 204 b 286 228 296 251 306 274 b 348 280 391 283 433 283 b 458 283 451 346 433 346 z"},",":{"x_min":0,"x_max":171,"ha":171,"o":"m 77 102 b 65 102 59 91 59 83 b 59 58 10 -15 10 -23 b 10 -32 15 -35 23 -35 b 52 -35 111 47 117 53 b 123 59 128 62 128 70 b 128 79 116 102 77 102 z"},"n":{"x_min":0,"x_max":370,"ha":370,"o":"m 205 -67 b 205 98 366 327 366 338 b 366 348 350 386 312 386 b 311 386 308 384 304 380 l 305 381 b 305 381 192 292 36 49 b 52 168 151 288 155 296 b 159 305 134 348 91 348 b 75 348 -33 137 -33 62 b -33 8 9 -18 24 -18 b 38 -18 164 200 250 296 b 205 211 152 84 152 -9 b 152 -97 225 -124 225 -106 b 225 -87 205 -100 205 -67 z"},"h":{"x_min":0,"x_max":386,"ha":386,"o":"m 217 -72 b 217 108 402 313 402 322 b 402 331 372 385 343 385 b 342 385 341 384 340 384 b 336 382 206 338 38 33 b 38 169 299 498 299 509 b 299 520 273 560 227 560 b 194 560 -24 202 -24 65 b -24 31 13 -17 41 -22 b 55 -25 147 177 279 301 b 228 213 166 76 166 -8 b 166 -98 230 -117 230 -100 b 230 -82 217 -88 217 -72 z"},"z":{"x_min":0,"x_max":325,"ha":325,"o":"m 194 74 b 137 83 73 79 22 71 b 116 156 284 243 287 264 b 291 287 247 343 223 347 b 151 359 33 332 29 310 b 24 275 31 261 46 258 b 61 256 200 296 236 290 b 236 290 -48 92 -71 43 b -71 42 -71 42 -72 41 b -77 8 -72 -11 -61 -13 b -49 -15 111 33 224 15 b 276 6 287 -3 286 -11 b 284 -20 274 -20 273 -25 b 273 -28 274 -30 277 -31 b 286 -32 297 -21 300 -4 b 304 22 284 60 194 74 z"},"B":{"x_min":0,"x_max":468,"ha":468,"o":"m 451 250 b 451 300 396 347 311 359 b 381 413 440 475 440 525 b 440 575 369 632 326 632 b 206 632 45 487 45 457 b 45 424 82 400 82 410 b 82 412 81 412 81 415 b 81 425 226 587 369 587 b 387 587 397 577 397 555 b 397 502 335 444 264 396 b 291 436 310 463 310 465 b 310 476 285 514 242 514 b 226 514 161 416 101 300 b 81 289 69 283 67 281 b 62 276 68 261 75 249 b 28 150 -12 45 -12 -23 b -49 -17 -28 16 -54 16 b -78 16 -36 -59 6 -82 b 23 -111 47 -128 47 -110 b 47 -104 41 -102 39 -88 b 185 -80 451 78 451 250 z m 46 -18 b 67 68 129 180 187 275 b 204 285 222 296 241 308 b 263 314 285 318 304 318 b 373 318 417 291 417 267 b 417 166 192 12 46 -18 z"},"K":{"x_min":0,"x_max":379,"ha":379,"o":"m 554 564 b 552 593 524 662 505 625 b 462 543 287 412 144 343 b 202 469 259 568 259 577 b 259 596 235 630 193 630 b 183 630 100 467 40 303 b 27 300 16 298 6 297 b -85 291 -74 339 -88 338 b -102 337 -79 236 14 228 b -8 158 -23 93 -23 45 b -23 -89 33 -127 33 -97 b 33 -88 25 -88 25 -58 b 25 22 53 121 91 218 b 132 85 247 -113 359 -141 b 414 -154 462 -127 467 -107 b 471 -87 442 -123 420 -117 b 313 -91 190 169 166 262 b 350 336 558 508 554 564 z"},"R":{"x_min":0,"x_max":417,"ha":417,"o":"m 529 -120 b 529 -135 511 -147 485 -147 b 363 -147 216 38 144 140 b 299 201 491 335 491 463 b 491 529 419 620 338 620 b 143 620 -58 437 -58 398 b -58 356 -9 326 -9 338 b -9 341 -10 341 -10 345 b -10 379 194 569 383 569 b 413 569 443 555 443 504 b 443 415 251 270 94 215 b 152 325 212 413 212 421 b 212 436 182 474 149 474 b 129 474 48 342 -10 202 b -45 209 -50 230 -50 243 b -50 259 -71 271 -71 243 b -71 226 -56 186 -28 156 b -53 87 -71 18 -71 -34 b -71 -100 -30 -175 12 -175 b 27 -175 23 -156 12 -156 b 2 -156 -10 -135 -10 -96 b -10 -34 13 40 44 113 b 128 -2 313 -182 442 -182 b 527 -182 548 -148 548 -116 b 548 -103 529 -105 529 -120 z"},"T":{"x_min":0,"x_max":238,"ha":238,"o":"m 381 597 b 136 597 -179 437 -179 415 b -179 383 -143 352 -121 352 b -118 352 -114 355 -106 358 b -15 399 73 286 52 211 b 15 93 -4 -3 -4 -115 b -4 -189 37 -203 37 -176 l 37 -149 b 37 64 277 475 277 492 b 277 497 274 504 267 511 b 324 523 385 531 449 531 b 545 531 577 490 577 470 b 577 450 602 454 602 468 b 602 481 596 597 381 597 z m 81 299 b 57 361 -14 393 -51 389 b -51 389 -51 389 -51 389 b -3 415 67 451 154 480 b 133 436 107 372 81 299 z"},"P":{"x_min":0,"x_max":405,"ha":405,"o":"m 406 620 b 375 620 307 556 230 452 b 248 486 259 507 259 510 b 259 523 234 570 190 570 b 171 570 90 421 32 250 b 29 255 28 259 28 263 b 28 281 11 286 11 270 b 11 265 13 247 23 226 b -9 128 -33 25 -33 -60 b -33 -212 31 -255 31 -221 b 31 -211 22 -211 22 -177 b 22 -72 55 48 96 158 b 119 149 148 142 185 142 b 341 142 509 418 509 502 b 509 586 450 620 406 620 z m 137 211 b 131 211 125 211 119 211 b 175 323 338 584 415 584 b 425 584 432 583 432 555 b 432 442 244 211 137 211 z"},"|":{"x_min":0,"x_max":157,"ha":157,"o":"m 51 637 b 51 568 18 166 18 -104 b 18 -139 52 -162 70 -162 b 77 -162 81 -158 81 -152 b 81 -141 73 -144 73 -105 b 73 59 119 568 119 604 b 119 628 88 664 67 664 b 58 664 51 656 51 637 z"},"t":{"x_min":0,"x_max":179,"ha":179,"o":"m 224 469 b 262 533 289 576 289 579 b 289 589 273 631 223 631 b 206 631 163 562 117 465 b 97 465 77 465 56 465 b -9 465 2 476 -12 476 b -27 476 -37 459 -37 433 b -37 407 -7 396 29 396 b 48 396 67 396 86 397 b 23 253 -37 76 -37 -23 b -37 -81 23 -145 23 -116 b 23 -105 11 -105 11 -71 b 11 67 107 264 187 405 b 370 426 506 477 506 502 b 506 519 448 483 224 469 z"},"M":{"x_min":0,"x_max":659,"ha":659,"o":"m 703 408 b 703 421 679 479 627 479 b 621 482 616 483 613 481 b 494 408 384 223 304 52 b 369 263 535 544 535 558 b 535 574 515 618 470 628 b 464 633 456 636 450 630 b 449 630 448 630 447 628 b 343 538 170 281 58 58 b 74 172 209 432 209 448 b 209 464 192 510 135 510 b 119 510 -13 178 -13 85 b -13 -8 41 -31 55 -31 b 60 -31 62 -30 62 -25 b 85 26 220 310 385 509 b 313 355 209 99 209 7 b 209 -82 278 -111 278 -83 b 278 -83 432 264 577 409 b 522 308 441 124 441 26 b 441 -73 527 -116 527 -88 b 527 -69 519 -65 519 -39 b 519 126 703 395 703 408 z"},"g":{"x_min":0,"x_max":423,"ha":423,"o":"m 298 315 b 282 343 253 384 215 384 b 126 384 -52 117 -52 54 b -52 -10 6 -42 20 -42 b 42 -42 214 170 286 246 b 272 175 205 53 131 -45 b 87 -63 24 -100 -32 -144 b -42 -152 -54 -163 -61 -172 b -66 -179 -67 -186 -55 -178 b -27 -158 29 -121 94 -90 b 39 -154 -16 -200 -54 -200 b -94 -200 -52 -250 -9 -250 b 105 -250 381 132 381 238 b 381 276 325 315 298 315 z m 13 -2 b 9 -2 8 1 8 4 b 8 46 220 324 252 324 b 273 324 282 304 286 291 b 193 212 22 -2 13 -2 z"},"j":{"x_min":0,"x_max":170,"ha":170,"o":"m 29 317 b 12 317 20 303 20 272 b 20 204 -43 54 -117 -58 b -157 -78 -205 -109 -249 -143 b -259 -151 -271 -163 -278 -172 b -283 -178 -284 -186 -272 -178 b -248 -160 -202 -130 -147 -101 b -191 -160 -236 -200 -271 -200 b -312 -200 -270 -250 -227 -250 b -112 -250 113 133 113 239 b 113 277 56 317 29 317 z m 131 534 b 113 534 62 432 62 415 b 62 398 77 380 87 380 b 97 380 184 459 184 481 b 184 513 150 534 131 534 z"},"i":{"x_min":0,"x_max":188,"ha":188,"o":"m 95 339 b 82 339 -14 156 -14 42 b -14 -11 44 -40 44 -21 b 44 -9 35 -11 36 10 b 38 111 162 275 162 288 b 162 301 135 339 95 339 z m 198 511 b 180 511 132 412 132 395 b 132 379 145 362 156 362 b 165 362 248 438 248 459 b 248 491 216 511 198 511 z"},"y":{"x_min":0,"x_max":351,"ha":351,"o":"m 248 292 b 248 288 248 284 247 280 b 206 226 40 15 5 15 b 5 15 139 241 139 345 b 139 388 99 424 70 424 b 55 424 72 410 72 392 b 72 269 -57 77 -57 60 b -57 43 -8 -8 24 -8 b 52 -8 192 155 242 226 b 230 146 197 60 153 -13 b 109 -26 29 -71 -40 -127 b -51 -135 -63 -147 -71 -157 b -76 -163 -77 -171 -64 -163 b -30 -138 43 -89 126 -54 b 69 -135 -2 -193 -69 -193 b -97 -193 -84 -179 -94 -179 b -103 -179 -106 -250 -47 -250 b 194 -250 314 122 314 230 b 314 281 248 313 248 292 z"},"@":{"x_min":0,"x_max":735,"ha":735,"o":"m 389 27 b 389 -23 426 -53 457 -53 b 517 -53 666 69 666 246 b 666 379 567 555 385 555 b 202 555 -15 239 -15 48 b -15 -80 88 -118 130 -118 b 142 -118 149 -116 149 -111 b 149 -96 41 -81 41 46 b 41 165 200 482 383 482 b 475 482 625 363 625 244 b 625 103 504 -20 453 -20 b 446 -20 440 -16 440 -2 b 440 93 538 200 538 225 b 538 249 503 268 488 268 b 444 268 269 30 256 30 b 251 30 250 34 250 37 b 250 105 394 319 432 319 b 452 319 463 305 477 289 b 479 286 481 285 483 285 b 489 285 493 294 490 299 b 472 328 439 374 387 374 b 315 374 171 138 171 63 b 171 21 210 -23 240 -23 b 267 -23 344 110 436 190 b 425 161 389 75 389 27 z"},".":{"x_min":0,"x_max":211,"ha":211,"o":"m 75 49 b 31 49 11 -37 55 -37 b 111 -37 130 49 75 49 z"},"p":{"x_min":0,"x_max":365,"ha":365,"o":"m 322 394 b 249 394 127 206 55 74 b 54 74 52 73 51 72 b 105 194 168 298 168 307 b 168 318 137 352 91 352 b 71 352 6 207 -39 64 b -66 74 -72 95 -72 116 b -72 130 -88 129 -88 112 b -88 100 -86 56 -50 29 b -72 -44 -87 -113 -87 -157 b -87 -215 -16 -272 -16 -241 b -16 -233 -29 -233 -29 -205 b -29 -179 -25 -151 -18 -122 b -12 -104 13 -53 48 9 b 194 28 386 205 386 320 b 386 365 343 394 322 394 z m 98 96 b 176 226 269 363 305 363 b 311 363 316 358 316 340 b 316 276 201 156 98 96 z"},"X":{"x_min":0,"x_max":365,"ha":365,"o":"m 397 577 b 379 577 284 492 179 380 b 159 467 140 537 124 553 b 103 575 -1 525 18 506 b 30 493 57 397 93 285 b -26 148 -134 -4 -134 -85 b -134 -115 -104 -112 -104 -87 b -104 -34 0 91 118 212 b 169 68 232 -76 297 -76 b 322 -76 314 -53 302 -53 b 271 -53 233 127 198 292 b 306 397 410 487 443 506 b 476 526 423 577 397 577 z"},"*":{"x_min":0,"x_max":324,"ha":324,"o":"m 269 357 b 257 376 225 418 192 457 b 237 483 274 505 274 508 b 274 516 270 538 254 538 b 247 538 222 524 192 504 b 204 536 212 562 212 568 b 212 589 187 597 178 597 b 169 597 170 591 170 585 b 170 578 161 546 150 507 b 130 530 114 546 109 546 b 95 546 59 532 72 520 b 77 516 100 491 129 461 b 78 425 31 389 31 384 b 31 380 38 379 44 379 b 48 379 84 398 127 421 b 119 390 113 362 113 348 b 113 338 113 327 117 327 b 119 327 140 375 162 428 b 204 385 251 342 276 334 b 283 334 273 350 269 357 z"},"Y":{"x_min":0,"x_max":392,"ha":392,"o":"m 392 580 l 392 581 b 392 581 205 410 42 54 b 17 54 144 398 201 498 b 221 534 157 559 121 559 b 100 559 -20 257 -20 99 b -20 74 12 14 47 14 b 67 14 185 314 380 530 b 337 372 138 -122 29 -122 b -27 -122 -33 -63 -33 -51 b -33 -38 -56 -38 -56 -58 b -56 -78 -27 -180 85 -180 b 217 -180 468 467 468 511 b 468 550 407 595 392 580 z"},"c":{"x_min":0,"x_max":319,"ha":319,"o":"m 69 -38 b 190 -38 330 172 336 183 b 350 202 335 219 315 194 b 300 174 166 9 77 9 b 56 9 53 31 53 43 b 53 107 204 322 267 322 b 271 322 273 320 273 315 b 273 250 207 177 200 171 b 192 164 205 154 205 154 b 221 154 301 233 301 318 b 301 351 262 392 232 392 b 156 392 -29 160 -29 69 b -29 -9 24 -38 69 -38 z"},"!":{"x_min":0,"x_max":251,"ha":251,"o":"m 82 66 b 92 66 253 473 253 504 b 253 535 210 553 188 553 b 165 553 171 537 171 529 b 171 492 59 180 59 77 b 59 67 67 66 73 66 b 77 66 80 66 82 66 z m 35 10 b 23 10 21 3 20 -5 b 17 -22 10 -67 10 -80 b 10 -96 30 -108 43 -108 b 57 -108 91 -47 91 -36 b 91 -10 57 10 35 10 z"},"/":{"x_min":0,"x_max":263,"ha":263,"o":"m 250 643 b 242 620 -44 28 -44 -48 b -44 -72 -12 -90 7 -90 b 14 -90 19 -87 19 -81 b 19 67 318 606 318 619 b 318 630 287 653 266 653 b 259 653 253 650 250 643 z"},"[":{"x_min":0,"x_max":253,"ha":253,"o":"m 350 643 b 350 648 334 650 311 650 b 273 650 215 645 176 644 b 162 653 144 658 132 658 b 110 658 116 643 116 634 b 116 597 -33 44 -33 -59 b -33 -73 -32 -84 -26 -84 b -25 -107 -19 -116 -1 -116 b 21 -116 175 -85 175 -63 b 175 -54 151 -51 121 -51 b 103 -51 0 -53 -14 -58 b 28 55 168 491 193 591 b 259 601 350 631 350 643 z"},"6":{"x_min":0,"x_max":377,"ha":377,"o":"m 276 230 b 289 230 290 223 290 207 b 290 169 173 -7 96 -7 b 79 -7 66 -4 56 0 b 84 55 207 230 276 230 z m 345 592 b 290 592 -27 321 -27 99 b -27 43 -4 -16 25 -16 b 33 -16 36 -15 35 -13 b 37 -13 38 -14 39 -14 b 53 -35 84 -64 122 -64 b 200 -64 333 80 333 172 b 333 215 287 270 247 270 b 146 270 34 136 16 37 b 15 44 14 51 14 59 b 14 162 281 504 372 504 b 419 504 382 592 345 592 z"},"r":{"x_min":0,"x_max":308,"ha":308,"o":"m 338 354 b 338 378 305 402 292 402 b 291 402 289 402 288 401 l 288 402 b 197 340 125 233 78 149 b 94 197 107 240 107 259 b 107 321 31 347 31 333 b 31 325 37 326 37 303 b 37 252 -51 46 -51 27 b -51 -21 16 -60 16 -39 b 16 -39 16 -38 16 -37 b 81 146 176 258 231 311 b 208 261 187 202 187 166 b 187 114 248 97 248 107 b 248 118 240 111 240 131 b 240 207 338 348 338 354 z"},"2":{"x_min":0,"x_max":381,"ha":381,"o":"m 306 120 b 238 120 167 103 107 82 b 191 181 371 398 371 460 b 371 508 344 571 310 571 b 205 571 24 361 24 326 b 24 310 32 302 39 302 b 45 302 224 506 317 506 b 323 506 327 504 327 494 b 327 429 -5 73 -5 54 b -5 48 1 43 10 40 b -19 25 -36 11 -36 5 b -36 -11 -29 -46 -2 -46 b 25 -46 181 67 339 67 b 393 67 415 44 415 14 b 415 7 418 5 421 5 b 424 5 428 8 428 13 b 428 33 404 120 306 120 z"},"{":{"x_min":0,"x_max":263,"ha":263,"o":"m 344 696 b 218 696 132 311 34 311 b 20 311 17 285 30 285 b 45 285 60 262 60 252 b 60 202 -44 31 -44 -97 b -44 -150 -15 -164 5 -164 b 15 -164 23 -160 23 -156 b 23 -144 9 -146 9 -114 b 9 -7 118 148 118 235 b 118 280 88 292 88 292 b 210 292 294 662 377 662 b 390 662 384 696 344 696 z"},"9":{"x_min":0,"x_max":374,"ha":374,"o":"m 258 567 b 193 567 6 392 6 281 b 6 235 52 189 71 189 b 87 189 165 280 216 342 b 182 241 143 93 143 -2 b 143 -48 179 -76 197 -76 b 204 -76 208 -72 208 -65 b 208 -51 203 -61 203 -36 b 203 127 331 365 331 379 b 331 405 296 453 273 453 b 269 453 265 451 261 447 b 244 427 83 231 67 231 b 50 231 51 255 51 263 b 51 308 195 515 295 515 b 340 515 338 488 338 477 b 338 464 344 458 351 458 b 358 458 365 464 365 472 b 365 499 336 567 258 567 z"}," ":{"x_min":0,"x_max":205,"ha":205,"o":""},"I":{"x_min":0,"x_max":288,"ha":288,"o":"m 320 560 b 211 560 19 504 19 471 b 19 453 52 422 67 422 b 77 422 114 452 183 475 b 147 360 44 60 44 -41 b 44 -43 44 -44 44 -46 b -45 -62 -106 -85 -119 -96 b -139 -113 -131 -159 -117 -159 b -103 -159 -38 -131 60 -111 b 77 -143 102 -151 102 -136 b 102 -125 98 -134 98 -105 b 143 -97 194 -92 249 -92 b 257 -92 260 -97 260 -105 b 260 -112 251 -114 251 -120 b 251 -124 253 -129 262 -129 b 304 -129 277 -30 218 -30 b 178 -30 141 -33 106 -37 b 142 142 283 439 283 472 b 283 480 280 489 276 497 b 297 499 320 501 345 501 b 404 501 417 479 417 462 b 417 444 436 444 436 459 b 436 507 372 560 320 560 z"},"H":{"x_min":0,"x_max":374,"ha":374,"o":"m 345 308 b 407 453 446 506 446 526 b 446 566 348 628 348 574 b 348 545 313 470 258 313 b 212 310 170 304 133 297 b 172 394 204 472 204 488 b 204 537 113 593 113 533 b 113 520 73 402 32 272 b 3 262 -17 253 -24 248 b -44 231 -36 184 -22 184 b -17 184 -7 187 8 192 b -22 90 -38 22 -38 -26 b -38 -115 22 -145 22 -123 b 22 -111 17 -121 17 -89 b 17 -14 55 94 103 220 b 141 229 185 238 235 244 b 197 127 175 34 175 -63 b 175 -172 240 -184 240 -173 b 240 -155 229 -163 229 -134 b 229 -3 267 119 321 251 b 331 251 341 252 351 252 b 359 252 362 247 362 239 b 362 232 353 229 353 223 b 353 220 355 214 364 214 b 400 214 386 286 345 308 z"},"4":{"x_min":0,"x_max":354,"ha":354,"o":"m 288 322 b 318 413 341 484 341 487 b 341 516 292 538 277 538 b 261 538 255 518 255 518 b 255 507 235 423 210 322 b 165 319 120 310 83 299 b 128 367 187 478 187 532 b 187 593 159 610 145 610 b 140 610 137 608 137 605 b 137 598 141 597 141 563 b 141 464 -9 277 -9 269 b -9 267 -8 265 -6 263 b -12 259 -15 256 -15 253 b -15 246 -5 221 3 221 b 9 221 108 257 198 271 b 161 124 121 -37 121 -59 b 121 -79 139 -88 147 -88 b 152 -88 219 112 273 276 b 357 274 361 252 367 252 b 373 252 370 310 288 322 z"},"~":{"x_min":0,"x_max":390,"ha":390,"o":"m 38 439 b 26 427 24 380 42 380 b 49 380 114 438 205 438 b 228 438 231 433 231 433 b 231 433 205 380 255 380 b 305 380 355 430 355 460 b 355 468 353 473 350 473 b 347 473 344 471 340 465 b 329 447 281 433 258 433 b 252 433 248 434 246 436 b 246 436 230 474 176 474 b 122 474 55 455 38 439 z"},"D":{"x_min":0,"x_max":441,"ha":441,"o":"m 458 452 b 449 538 348 579 275 579 b 69 579 -79 368 -79 335 b -79 267 -28 261 -28 271 b -28 282 -38 278 -38 291 b -38 319 121 531 312 531 b 381 531 400 496 404 454 b 417 316 233 91 58 6 b 107 210 262 414 262 423 b 262 433 241 473 202 473 b 175 473 -4 193 -4 -7 b -4 -11 -4 -14 -4 -17 b -19 -21 -34 -23 -49 -23 b -67 -23 -76 -8 -76 4 b -76 26 -110 28 -110 1 b -110 -48 -70 -101 -20 -101 b -12 -101 -2 -100 8 -97 b 24 -150 52 -162 52 -142 b 52 -134 44 -134 44 -105 b 44 -99 44 -93 44 -87 b 208 -29 485 177 458 452 z"},"^":{"x_min":0,"x_max":237,"ha":237,"o":"m -6 386 b -6 386 -11 378 -3 378 b 18 378 94 439 109 455 b 131 431 205 358 236 358 b 243 358 247 363 239 369 b 229 378 144 499 140 505 b 138 507 134 508 129 508 b 119 508 107 505 102 500 b 95 494 11 400 -6 386 z"},"0":{"x_min":0,"x_max":370,"ha":370,"o":"m 86 -2 b 66 -2 61 14 61 30 b 61 140 201 448 285 511 b 292 505 299 488 299 446 b 299 284 154 -2 86 -2 z m 299 525 b 299 540 277 566 244 566 b 163 566 -10 251 -10 102 b -10 20 66 -58 120 -58 b 250 -58 346 305 346 423 b 346 469 336 511 299 525 z"},"F":{"x_min":0,"x_max":271,"ha":271,"o":"m 409 590 b 360 590 286 573 217 551 b 206 556 193 559 180 559 b 176 559 170 549 161 532 b 83 503 21 471 21 456 b 21 447 27 396 50 396 b 58 396 83 410 120 429 b 107 392 93 351 79 306 b 24 297 -16 283 -16 272 b -16 256 -30 203 -2 203 b 5 203 25 207 51 214 b 19 98 -7 -20 -7 -92 b -7 -129 1 -156 14 -156 b 19 -156 22 -147 22 -136 b 22 -71 75 91 132 235 b 211 258 296 285 296 295 b 296 308 240 317 199 317 b 187 317 176 317 165 316 b 198 394 229 459 248 486 b 312 510 385 530 458 530 b 496 530 513 522 523 522 b 532 522 530 590 409 590 z"},"`":{"x_min":0,"x_max":230,"ha":230,"o":"m 62 467 b 60 473 57 476 54 476 b 42 476 21 439 25 420 b 30 392 75 334 175 334 b 188 334 197 349 179 354 b 162 359 76 387 62 467 z"},"k":{"x_min":0,"x_max":320,"ha":320,"o":"m 359 -98 b 352 -101 341 -100 341 -100 b 238 -100 151 125 130 182 b 245 224 391 314 391 362 b 391 377 366 419 336 419 b 319 419 243 374 172 321 b 231 417 286 492 286 497 b 286 507 262 544 219 544 b 189 544 -29 174 -29 17 b -29 -35 29 -93 29 -66 b 29 -58 20 -58 20 -31 b 20 15 42 78 73 143 b 106 63 196 -127 323 -127 b 345 -127 360 -123 370 -117 b 386 -109 373 -91 359 -98 z m 341 401 b 341 401 232 291 125 232 b 230 336 341 401 341 401 z"},"u":{"x_min":0,"x_max":373,"ha":373,"o":"m 365 239 b 365 252 336 294 304 294 b 275 294 63 -22 32 -22 b 30 -22 29 -19 29 -14 b 29 79 184 301 184 323 b 184 345 142 372 121 372 b 111 372 -36 152 -36 34 b -36 2 4 -56 41 -56 b 64 -56 193 114 259 204 b 233 142 206 63 206 17 b 206 -32 260 -56 260 -35 b 260 -30 256 -29 256 -20 b 256 95 365 227 365 239 z"},"]":{"x_min":0,"x_max":274,"ha":274,"o":"m 302 591 b 302 599 299 607 295 614 b 289 631 274 643 245 646 b 217 646 57 636 57 608 b 57 589 167 580 216 578 b 192 427 113 38 109 -30 b 59 -31 -58 -41 -58 -54 b -58 -68 -60 -89 -38 -89 b -16 -89 116 -85 132 -85 b 143 -85 156 -57 145 -41 b 176 71 302 494 302 591 z"},"U":{"x_min":0,"x_max":519,"ha":519,"o":"m 386 -39 b 386 148 519 331 519 357 b 519 381 475 433 415 433 b 410 433 400 418 388 393 b 322 278 78 -143 47 -160 b 44 -155 42 -147 42 -131 b 42 103 250 445 295 490 b 307 502 261 575 183 575 b 164 575 -42 174 -42 -89 b -42 -177 57 -213 62 -187 b 116 -147 244 76 327 228 b 306 157 290 82 290 46 b 290 -96 405 -100 405 -69 b 405 -57 386 -69 386 -39 z"},"o":{"x_min":0,"x_max":325,"ha":325,"o":"m 210 344 b 198 358 176 374 163 374 b 157 374 146 368 133 356 b 105 349 72 327 72 317 b 72 310 77 316 99 322 b 39 255 -36 143 -36 78 b -36 33 20 -26 51 -26 b 137 -26 277 156 277 250 b 277 296 245 327 210 344 z m 37 18 b 28 18 24 23 24 32 b 24 130 177 283 213 317 b 237 304 239 280 239 258 b 239 178 98 18 37 18 z"},"N":{"x_min":0,"x_max":468,"ha":468,"o":"m 575 558 b 575 577 554 640 477 640 b 475 640 471 637 467 632 b 308 501 161 289 63 39 b 80 223 212 401 212 420 b 212 443 167 502 122 502 b 88 502 -9 240 -9 67 b -9 -21 73 -58 73 -36 b 150 190 274 377 412 533 b 333 369 214 58 214 -89 b 214 -193 305 -249 305 -215 b 305 -198 294 -203 294 -172 b 294 106 575 539 575 558 z"},"+":{"x_min":0,"x_max":321,"ha":321,"o":"m 304 221 b 304 234 264 238 231 238 b 222 238 202 238 178 238 b 197 286 212 327 212 338 b 212 364 180 383 166 383 b 153 383 153 374 153 374 b 153 365 135 304 116 238 b 73 238 32 238 21 238 b 6 238 -10 182 12 182 b 38 182 70 184 102 187 b 89 135 78 88 78 68 b 78 52 80 39 90 39 b 100 39 109 51 109 59 b 109 63 135 127 161 192 b 237 201 304 213 304 221 z"},"G":{"x_min":0,"x_max":558,"ha":558,"o":"m 483 311 b 372 311 176 254 176 220 b 176 202 210 170 226 170 b 237 170 285 211 375 234 b 313 141 123 -11 44 -11 b 18 -11 10 1 10 19 b 10 167 301 500 385 518 b 383 489 381 447 370 378 b 367 356 357 349 357 343 b 357 338 359 332 369 332 b 407 332 447 467 453 504 b 456 525 420 556 401 560 b 389 572 374 581 357 581 b 285 581 -40 252 -40 48 b -40 -10 -1 -73 65 -73 b 135 -73 231 -12 307 56 b 284 -7 268 -63 268 -121 b 268 -235 315 -267 315 -241 b 315 -234 308 -234 308 -209 b 308 0 493 241 493 250 b 493 250 493 250 493 250 b 498 251 503 251 509 251 b 568 251 581 229 581 211 b 581 192 601 192 601 207 b 601 257 536 311 483 311 z"},"q":{"x_min":0,"x_max":383,"ha":383,"o":"m 354 194 b 354 217 314 252 300 252 b 259 252 49 -13 36 -13 b 32 -13 30 -8 30 -6 b 30 58 230 322 267 322 b 285 322 296 309 309 294 b 317 285 325 297 321 303 b 305 331 255 386 206 386 b 137 386 -65 109 -65 38 b -65 -20 -7 -63 21 -63 b 43 -63 139 63 215 137 b 183 80 131 -1 131 -135 b 131 -220 199 -272 199 -241 b 199 -231 186 -230 186 -195 b 186 38 354 194 354 194 z"},"d":{"x_min":0,"x_max":383,"ha":383,"o":"m 513 496 b 513 508 496 560 453 560 b 447 560 366 452 298 317 b 276 350 244 384 204 384 b 147 384 -42 147 -42 66 b -42 11 11 -34 41 -34 b 67 -34 128 91 251 209 b 225 141 207 71 207 8 b 207 -82 278 -117 278 -100 b 278 -82 265 -88 265 -49 b 265 228 513 487 513 496 z m 28 0 b 26 0 25 3 25 5 b 25 76 216 320 240 320 b 258 320 275 303 285 290 b 284 287 283 285 282 283 b 159 180 37 0 28 0 z"},"1":{"x_min":0,"x_max":244,"ha":244,"o":"m 201 592 b 137 586 5 455 5 414 b 5 405 4 391 11 391 b 13 391 16 393 20 395 b 33 405 122 471 174 502 b 137 368 49 75 49 -38 b 49 -52 62 -67 67 -67 b 85 -67 270 513 270 544 b 270 575 229 592 201 592 z"},"5":{"x_min":0,"x_max":422,"ha":422,"o":"m 476 548 b 476 556 422 558 360 558 b 279 558 183 554 166 554 b 138 554 125 474 140 474 b 142 474 143 474 146 476 b 147 478 151 480 155 481 b 136 414 109 298 109 282 b 109 269 122 253 131 248 b 141 237 155 229 163 229 b 177 229 243 308 296 308 b 312 308 315 300 315 255 b 315 210 178 15 31 15 b -11 15 -16 68 -16 83 b -16 91 -22 96 -28 96 b -33 96 -37 92 -37 83 b -37 64 -29 -51 84 -51 b 222 -51 364 137 364 234 b 364 287 330 363 271 363 b 237 363 194 341 162 317 b 183 377 216 461 227 496 b 326 510 476 526 476 548 z"}}}
